<svg xmlns="http://www.w3.org/2000/svg" xml:space="preserve" viewBox="0 0 256 256"><circle cx="131.639" cy="174.5" r="79" fill="#FCDD86"/><path fill="#70D6F9" d="M186.574 2.5H142.91c-.774 0-1.477.452-1.797 1.157L108.003 76.5h48l32.368-71.209a1.974 1.974 0 0 0-1.797-2.791z"/><path fill="#F5C84C" d="m160.989 65.53-4.986 10.97h.388c.966 0 1.749.783 1.749 1.749v5.503c0 .966-.783 1.749-1.749 1.749h-49.503a1.749 1.749 0 0 1-1.749-1.749v-5.503c0-.966.783-1.749 1.749-1.749h1.115l5-11H102.89a6.251 6.251 0 0 0-6.251 6.251v31.924c10.551-5.224 22.429-8.175 35-8.175s24.449 2.95 35 8.175V71.751a6.25 6.25 0 0 0-5.65-6.221z"/><path fill="#3A70BF" d="M123.529 3.657a1.973 1.973 0 0 0-1.797-1.157H78.068a1.974 1.974 0 0 0-1.797 2.791L103.639 65.5h9.364L132.321 23l-8.792-19.343z"/><path fill="#FC657E" d="M162.607 2.5H142.91c-.774 0-1.477.452-1.797 1.157L108.003 76.5h18.65c2.631-22.693 37.107-20.587 28.487-43-6.691-17.394 1.386-26.724 7.467-31z"/><circle cx="131.639" cy="174.5" r="67" fill="#F5C84C"/><path fill="#70D6F9" d="M57.839 108.9h-2.3v-2.3c0-1.7-1.4-3.2-3.2-3.2s-3.2 1.4-3.2 3.2v2.3h-2.3c-1.7 0-3.2 1.4-3.2 3.2 0 1.8 1.4 3.2 3.2 3.2h2.3v2.3c0 1.7 1.4 3.2 3.2 3.2s3.2-1.4 3.2-3.2v-2.3h2.3c1.7 0 3.2-1.4 3.2-3.2 0-1.8-1.4-3.2-3.2-3.2z"/><path fill="#F5C84C" d="M203.439 62.85c-4.5-.8-8-4.3-8.9-8.7 0-.2-.4-.2-.4 0-.9 4.4-4.4 7.9-8.9 8.7-.2 0-.2.3 0 .4 4.5.8 8 4.3 8.9 8.7 0 .2.4.2.4 0 .9-4.4 4.4-7.9 8.9-8.7.2-.1.2-.4 0-.4z"/><path fill="#FC657E" d="M217.87 227.378c-2.735-.486-4.862-2.613-5.409-5.287 0-.121-.243-.121-.243 0-.547 2.674-2.674 4.801-5.409 5.287-.122 0-.122.182 0 .243 2.735.486 4.862 2.613 5.409 5.287 0 .122.243.122.243 0 .547-2.674 2.674-4.801 5.409-5.287.121-.06.121-.243 0-.243z"/><path fill="#87D147" d="M188.439 84.5a3.4 3.4 0 1 0 0 6.8 3.4 3.4 0 0 0 0-6.8z"/><path fill="#F5C84C" d="M41.439 136.5a3.4 3.4 0 1 0 0 6.8 3.4 3.4 0 0 0 0-6.8z"/><path d="M131.64 93c-44.939 0-81.5 36.561-81.5 81.5S86.7 256 131.64 256s81.5-36.561 81.5-81.5S176.579 93 131.64 93zm0 158c-42.183 0-76.5-34.318-76.5-76.5S89.457 98 131.64 98s76.5 34.318 76.5 76.5-34.318 76.5-76.5 76.5zM190.335 2.051A4.455 4.455 0 0 0 186.574 0H142.91a4.482 4.482 0 0 0-4.073 2.623l-33.11 72.843A2.5 2.5 0 0 0 108.003 79h48c.98 0 1.87-.573 2.276-1.465l32.368-71.21a4.456 4.456 0 0 0-.312-4.274zM154.394 74h-42.508L143.25 5h42.508l-31.364 69z"/><path d="M156.391 74a2.5 2.5 0 0 0-.751 4.885V83h-48v-4h.095a2.5 2.5 0 1 0 0-5h-.847a4.254 4.254 0 0 0-4.249 4.249v5.503a4.254 4.254 0 0 0 4.249 4.249h49.503a4.254 4.254 0 0 0 4.249-4.249v-5.503A4.254 4.254 0 0 0 156.391 74z"/><path d="M162.125 63.175a2.497 2.497 0 0 0-2.944 1.957 2.5 2.5 0 0 0 1.956 2.945 3.757 3.757 0 0 1 3.003 3.675v31.125a2.5 2.5 0 1 0 5 0V71.751c0-4.15-2.951-7.756-7.015-8.576zM112.458 63h-9.568c-4.825 0-8.751 3.926-8.751 8.751v31.405a2.5 2.5 0 1 0 5 0V71.751A3.756 3.756 0 0 1 102.89 68h9.568a2.5 2.5 0 1 0 0-5z"/><path d="m134.236 21.171-8.432-18.548A4.48 4.48 0 0 0 121.732 0H78.068a4.456 4.456 0 0 0-3.762 2.052 4.457 4.457 0 0 0-.311 4.273l27.056 59.523a2.501 2.501 0 1 0 4.551-2.07L78.886 5h42.507l8.291 18.24a2.5 2.5 0 0 0 4.552-2.069zM131.64 215a2.5 2.5 0 0 0-2.5 2.5v10a2.5 2.5 0 1 0 5 0v-10a2.5 2.5 0 0 0-2.5-2.5z"/><circle cx="148.225" cy="139.424" r="8.292" fill="#FCDD86"/><path fill="#FCDD86" d="m142.643 179.381-11.539-6.49 12.305-13.099c2.519-2.679 1.623-7.035-1.427-8.662l-16.583-8.844a5.527 5.527 0 0 0-6.199.68l-15.478 13.267a5.528 5.528 0 0 0 7.194 8.394l12.611-10.809 6.88 3.669-12.191 12.978c-2.458 2.616-1.805 6.846 1.319 8.603l11.575 6.511-9.599 10.338a5.528 5.528 0 0 0 8.101 7.523l14.372-15.478c2.428-2.618 1.779-6.827-1.341-8.581z"/><path fill="#FCDD86" d="M119.535 179.066c-3.124-1.756-3.777-5.986-1.319-8.603l.1-.107-26.43 25.329a5.528 5.528 0 0 0 7.65 7.981l23.573-22.591-3.574-2.009zM175.987 151.755a5.527 5.527 0 0 0-7.691-1.398l-11.681 8.087-14.697-7.349.065.035c3.05 1.627 3.946 5.983 1.427 8.662l-2.819 3 14.007 7.004a5.527 5.527 0 0 0 5.618-.4l14.372-9.95a5.527 5.527 0 0 0 1.399-7.691z"/><path d="M148.226 128.632c-5.951 0-10.792 4.841-10.792 10.792s4.841 10.792 10.792 10.792c5.95 0 10.791-4.841 10.791-10.792s-4.841-10.792-10.791-10.792zm0 16.583a5.799 5.799 0 0 1-5.792-5.792c0-3.193 2.599-5.792 5.792-5.792s5.791 2.598 5.791 5.792a5.798 5.798 0 0 1-5.791 5.792z"/><path d="M147.863 182.957a7.981 7.981 0 0 0-3.994-5.755l-8.758-4.925 10.119-10.772c1.702-1.81 2.443-4.276 2.033-6.766-.409-2.487-1.943-4.661-4.104-5.814l-16.583-8.844a7.977 7.977 0 0 0-9.002.988l-15.479 13.267c-3.36 2.881-3.75 7.958-.87 11.32 2.88 3.36 7.958 3.75 11.319.871l11.314-9.698 2.49 1.328-9.955 10.598a7.982 7.982 0 0 0-2.083 6.713 7.975 7.975 0 0 0 3.998 5.78l8.81 4.956-7.439 8.013a7.973 7.973 0 0 0-2.14 5.76 7.974 7.974 0 0 0 2.56 5.585 8 8 0 0 0 5.459 2.141c2.156 0 4.306-.86 5.886-2.561l14.372-15.479a7.988 7.988 0 0 0 2.047-6.706zm-5.711 3.302-14.372 15.478a3.033 3.033 0 0 1-4.28.159 3 3 0 0 1-.965-2.106c-.03-.809.257-1.58.807-2.172l9.599-10.338a2.496 2.496 0 0 0-.606-3.879l-11.575-6.511a3.008 3.008 0 0 1-1.507-2.18 3.008 3.008 0 0 1 .785-2.531l12.191-12.978a2.503 2.503 0 0 0-.645-3.918l-6.88-3.669a2.5 2.5 0 0 0-2.803.308l-12.611 10.809a3.03 3.03 0 0 1-4.269-.329 3.033 3.033 0 0 1 .328-4.27l15.478-13.266a3.013 3.013 0 0 1 3.396-.373l16.583 8.844c.797.425 1.366 1.253 1.524 2.214.091.553.115 1.618-.743 2.531l-12.305 13.099a2.501 2.501 0 0 0 .597 3.89l11.539 6.49a3.01 3.01 0 0 1 1.506 2.169 3.013 3.013 0 0 1-.772 2.529z"/><path d="M124.243 179.989a2.501 2.501 0 0 0-3.535-.075l-22.902 21.949a3.02 3.02 0 0 1-2.161.841 3.006 3.006 0 0 1-2.12-.933 3.006 3.006 0 0 1-.841-2.159 3.013 3.013 0 0 1 .933-2.122l25.984-24.902a2.5 2.5 0 0 0-3.46-3.61L90.157 193.88c-3.196 3.063-3.304 8.155-.242 11.35a7.983 7.983 0 0 0 5.803 2.474 7.975 7.975 0 0 0 5.549-2.231l22.902-21.948a2.503 2.503 0 0 0 .074-3.536zM178.042 150.333a7.976 7.976 0 0 0-5.164-3.33 7.98 7.98 0 0 0-6.006 1.298l-10.464 7.245-12.773-6.387a2.5 2.5 0 0 0-2.236 4.472l14.098 7.049a2.5 2.5 0 0 0 2.541-.181l11.681-8.087a3.026 3.026 0 0 1 4.213.766c.461.665.635 1.469.49 2.265a3.011 3.011 0 0 1-1.255 1.947l-14.372 9.95a3.026 3.026 0 0 1-3.078.219l-13.157-6.578a2.5 2.5 0 0 0-2.236 4.472l13.157 6.578a8.026 8.026 0 0 0 8.16-.58l14.372-9.95a7.968 7.968 0 0 0 3.328-5.164 7.972 7.972 0 0 0-1.299-6.004zM164.34 1.245a2.5 2.5 0 0 0-3.491-.562c-6.14 4.438-15.349 14.719-8.042 33.714 3.705 9.634-1.4 13.495-10.741 19.488-7.511 4.819-16.023 10.281-17.761 21.333a2.5 2.5 0 0 0 4.94.777c1.389-8.833 8.573-13.443 15.521-17.901 8.463-5.431 18.056-11.585 12.707-25.492-5.798-15.075.229-23.475 6.306-27.867a2.502 2.502 0 0 0 .561-3.49z"/><path d="M131.64 105c-38.323 0-69.5 31.178-69.5 69.5s31.178 69.5 69.5 69.5 69.5-31.178 69.5-69.5-31.178-69.5-69.5-69.5zm0 134c-35.566 0-64.5-28.935-64.5-64.5s28.935-64.5 64.5-64.5 64.5 28.935 64.5 64.5-28.935 64.5-64.5 64.5z"/></svg>
